<svg width="28" height="28" viewBox="0 0 28 28" fill="none" xmlns="http://www.w3.org/2000/svg">
<path d="M25.375 7.875V20.125C25.375 20.8212 25.0984 21.4889 24.6062 21.9812C24.1139 22.4734 23.4462 22.75 22.75 22.75H5.25C4.55381 22.75 3.88613 22.4734 3.39384 21.9812C2.90156 21.4889 2.625 20.8212 2.625 20.125V7.875M25.375 7.875C25.375 7.17881 25.0984 6.51113 24.6062 6.01884C24.1139 5.52656 23.4462 5.25 22.75 5.25H5.25C4.55381 5.25 3.88613 5.52656 3.39384 6.01884C2.90156 6.51113 2.625 7.17881 2.625 7.875M25.375 7.875V8.1585C25.375 8.60667 25.2604 9.04739 25.0418 9.43868C24.8233 9.82997 24.5083 10.1588 24.1267 10.3938L15.3767 15.778C14.9627 16.033 14.4861 16.168 14 16.168C13.5139 16.168 13.0373 16.033 12.6233 15.778L3.87333 10.395C3.49174 10.16 3.17668 9.83113 2.95816 9.43985C2.73965 9.04856 2.62495 8.60784 2.625 8.15967V7.875" stroke="white" stroke-width="1.5" stroke-linecap="round" stroke-linejoin="round"/>
</svg>
