<svg width="20" height="20" viewBox="0 0 20 20" fill="none" xmlns="http://www.w3.org/2000/svg">
<g id="instagram-5 1" clip-path="url(#clip0_205_555)">
<path id="Vector" d="M5.07148 19.9293C3.88207 19.8752 3.23595 19.6772 2.80619 19.5096C2.23675 19.2879 1.83077 19.024 1.40339 18.5972C0.976016 18.1704 0.711505 17.7644 0.49098 17.195C0.323357 16.7652 0.12542 16.1191 0.0713288 14.9297C0.0118881 13.644 0 13.2582 0 10.0009C0 6.74354 0.0130769 6.35837 0.0707344 5.07148C0.124825 3.88207 0.323952 3.23714 0.490385 2.80619C0.712099 2.23675 0.97661 1.83077 1.4028 1.4028C1.82958 0.976016 2.23556 0.71091 2.8056 0.490385C3.23536 0.322763 3.88147 0.124825 5.07088 0.0707344C6.35718 0.0118881 6.74354 0 9.9997 0C13.2571 0 13.6422 0.0130769 14.9291 0.0707344C16.1185 0.124825 16.7635 0.323952 17.1944 0.490385C17.7638 0.71091 18.1698 0.976016 18.5972 1.4028C19.0246 1.82958 19.2879 2.23616 19.5096 2.8056C19.6772 3.23536 19.8752 3.88147 19.9293 5.07088C19.9881 6.35777 20 6.74295 20 10.0003C20 13.2565 19.9881 13.6428 19.9293 14.9297C19.8752 16.1191 19.676 16.7652 19.5096 17.195C19.2879 17.7644 19.024 18.1704 18.5972 18.5972C18.1704 19.024 17.7638 19.2879 17.1944 19.5096C16.7646 19.6772 16.1185 19.8752 14.9291 19.9293C13.6434 19.9881 13.2571 20 9.9997 20C6.74354 20 6.35718 19.9887 5.07148 19.9293Z" fill="#0DB760"/>
<path id="Vector_2" d="M5.07148 19.9293C3.88207 19.8752 3.23595 19.6772 2.80619 19.5096C2.23675 19.2879 1.83077 19.024 1.40339 18.5972C0.976016 18.1704 0.711505 17.7644 0.49098 17.195C0.323357 16.7652 0.12542 16.1191 0.0713288 14.9297C0.0118881 13.644 0 13.2582 0 10.0009C0 6.74354 0.0130769 6.35837 0.0707344 5.07148C0.124825 3.88207 0.323952 3.23714 0.490385 2.80619C0.712099 2.23675 0.97661 1.83077 1.4028 1.4028C1.82958 0.976016 2.23556 0.71091 2.8056 0.490385C3.23536 0.322763 3.88147 0.124825 5.07088 0.0707344C6.35718 0.0118881 6.74354 0 9.9997 0C13.2571 0 13.6422 0.0130769 14.9291 0.0707344C16.1185 0.124825 16.7635 0.323952 17.1944 0.490385C17.7638 0.71091 18.1698 0.976016 18.5972 1.4028C19.0246 1.82958 19.2879 2.23616 19.5096 2.8056C19.6772 3.23536 19.8752 3.88147 19.9293 5.07088C19.9881 6.35777 20 6.74295 20 10.0003C20 13.2565 19.9881 13.6428 19.9293 14.9297C19.8752 16.1191 19.676 16.7652 19.5096 17.195C19.2879 17.7644 19.024 18.1704 18.5972 18.5972C18.1704 19.024 17.7638 19.2879 17.1944 19.5096C16.7646 19.6772 16.1185 19.8752 14.9291 19.9293C13.6434 19.9881 13.2571 20 9.9997 20C6.74354 20 6.35718 19.9887 5.07148 19.9293Z" fill="#0DB760"/>
<g id="Vector_3">
<path d="M8.00048 10C8.00048 8.89547 8.89567 7.99984 10.0002 7.99984C11.1048 7.99984 12.0005 8.89547 12.0005 10C12.0005 11.1045 11.1048 12.0002 10.0002 12.0002C8.89567 12.0002 8.00048 11.1045 8.00048 10ZM6.91919 10C6.91919 11.7016 8.29857 13.0809 10.0002 13.0809C11.7019 13.0809 13.0813 11.7016 13.0813 10C13.0813 8.2984 11.7019 6.91907 10.0002 6.91907C8.29857 6.91907 6.91924 8.2983 6.91924 10M12.4833 6.79691C12.4832 6.93932 12.5254 7.07854 12.6045 7.19697C12.6835 7.31541 12.796 7.40774 12.9275 7.46228C13.059 7.51683 13.2038 7.53115 13.3435 7.50342C13.4832 7.4757 13.6115 7.40717 13.7122 7.30652C13.813 7.20587 13.8816 7.0776 13.9094 6.93795C13.9373 6.79829 13.9231 6.65352 13.8686 6.52193C13.8142 6.39035 13.722 6.27786 13.6036 6.1987C13.4852 6.11954 13.346 6.07726 13.2036 6.0772H13.2033C13.0124 6.07729 12.8294 6.15314 12.6944 6.28808C12.5594 6.42302 12.4834 6.60603 12.4833 6.79691ZM7.57614 14.8839C6.99114 14.8573 6.67318 14.7598 6.46187 14.6775C6.18174 14.5684 5.98186 14.4386 5.7717 14.2287C5.56155 14.0188 5.43147 13.8192 5.32288 13.539C5.24051 13.3278 5.14307 13.0098 5.11648 12.4248C5.08739 11.7924 5.08158 11.6024 5.08158 10.0001C5.08158 8.39781 5.08787 8.20835 5.11648 7.57538C5.14312 6.9904 5.24128 6.67298 5.32288 6.46115C5.43195 6.18102 5.56184 5.98115 5.7717 5.77101C5.98157 5.56086 6.18126 5.43078 6.46187 5.32221C6.67308 5.23984 6.99114 5.1424 7.57614 5.11581C8.20862 5.08672 8.39861 5.08091 10.0002 5.08091C11.6019 5.08091 11.7921 5.0871 12.4251 5.1159C13.0101 5.14254 13.3275 5.2407 13.5393 5.3223C13.8195 5.43088 14.0193 5.56125 14.2295 5.7711C14.4396 5.98096 14.5693 6.18112 14.6783 6.46125C14.7607 6.67245 14.8581 6.9905 14.8847 7.57547C14.9138 8.20845 14.9196 8.3979 14.9196 10.0002C14.9196 11.6025 14.9138 11.7919 14.8847 12.4249C14.8581 13.0099 14.7602 13.3278 14.6783 13.5391C14.5693 13.8193 14.4394 14.0191 14.2295 14.2288C14.0196 14.4385 13.8195 14.5685 13.5393 14.6776C13.3281 14.76 13.0101 14.8574 12.4251 14.884C11.7926 14.9131 11.6026 14.9189 10.0002 14.9189C8.39789 14.9189 8.20842 14.9131 7.57614 14.884M7.52646 4.03634C6.8877 4.06542 6.45122 4.1667 6.07003 4.31502C5.67551 4.46819 5.34108 4.67368 5.00713 5.00709C4.67318 5.3405 4.46821 5.67496 4.31504 6.06995C4.16671 6.45136 4.06543 6.88758 4.03634 7.52632C4.00677 8.16606 4 8.37059 4 10C4 11.6294 4.00677 11.8339 4.03634 12.4737C4.06543 13.1125 4.16671 13.5486 4.31504 13.93C4.46821 14.3246 4.67323 14.6596 5.00713 14.9929C5.34103 15.3262 5.67503 15.5314 6.07003 15.685C6.45194 15.8333 6.8877 15.9346 7.52646 15.9637C8.16657 15.9928 8.37077 16 10.0002 16C11.6297 16 11.8342 15.9932 12.474 15.9637C13.1128 15.9346 13.549 15.8333 13.9304 15.685C14.325 15.5314 14.6594 15.3263 14.9934 14.9929C15.3273 14.6595 15.5318 14.3246 15.6854 13.93C15.8338 13.5486 15.9355 13.1124 15.9641 12.4737C15.9932 11.8335 16 11.6294 16 10C16 8.37059 15.9932 8.16606 15.9641 7.52632C15.9351 6.88754 15.8338 6.45112 15.6854 6.06995C15.5318 5.67544 15.3268 5.34102 14.9934 5.00709C14.6599 4.67315 14.325 4.46819 13.9309 4.31502C13.549 4.1667 13.1128 4.06494 12.4745 4.03634C11.8346 4.0071 11.6302 4 10.001 4C8.37173 4 8.16681 4.00677 7.5267 4.03634" fill="white"/>
<path d="M8.00048 10C8.00048 8.89547 8.89567 7.99984 10.0002 7.99984C11.1048 7.99984 12.0005 8.89547 12.0005 10C12.0005 11.1045 11.1048 12.0002 10.0002 12.0002C8.89567 12.0002 8.00048 11.1045 8.00048 10M6.91919 10C6.91919 11.7016 8.29857 13.0809 10.0002 13.0809C11.7019 13.0809 13.0813 11.7016 13.0813 10C13.0813 8.2984 11.7019 6.91907 10.0002 6.91907C8.29857 6.91907 6.91924 8.2983 6.91924 10M12.4833 6.79691C12.4832 6.93931 12.5254 7.07854 12.6045 7.19697C12.6835 7.31541 12.796 7.40774 12.9275 7.46228C13.059 7.51683 13.2038 7.53115 13.3435 7.50342C13.4832 7.4757 13.6115 7.40717 13.7122 7.30652C13.813 7.20587 13.8816 7.0776 13.9094 6.93795C13.9373 6.79829 13.9231 6.65352 13.8686 6.52193C13.8142 6.39035 13.722 6.27786 13.6036 6.1987C13.4852 6.11954 13.346 6.07726 13.2036 6.0772H13.2033C13.0124 6.07729 12.8294 6.15314 12.6944 6.28808C12.5594 6.42302 12.4834 6.60603 12.4833 6.79691M7.57614 14.8839C6.99114 14.8573 6.67318 14.7598 6.46187 14.6775C6.18174 14.5684 5.98186 14.4386 5.7717 14.2287C5.56155 14.0188 5.43147 13.8192 5.32288 13.539C5.24051 13.3278 5.14307 13.0098 5.11648 12.4248C5.08739 11.7924 5.08158 11.6024 5.08158 10.0001C5.08158 8.39781 5.08787 8.20835 5.11648 7.57538C5.14312 6.9904 5.24128 6.67298 5.32288 6.46115C5.43195 6.18102 5.56184 5.98115 5.7717 5.77101C5.98157 5.56086 6.18126 5.43078 6.46187 5.32221C6.67308 5.23984 6.99114 5.1424 7.57614 5.11581C8.20862 5.08672 8.39861 5.08091 10.0002 5.08091C11.6019 5.08091 11.7921 5.0871 12.4251 5.1159C13.0101 5.14254 13.3275 5.2407 13.5393 5.3223C13.8195 5.43088 14.0193 5.56125 14.2295 5.7711C14.4396 5.98096 14.5693 6.18112 14.6783 6.46125C14.7607 6.67245 14.8581 6.9905 14.8847 7.57547C14.9138 8.20845 14.9196 8.3979 14.9196 10.0002C14.9196 11.6025 14.9138 11.7919 14.8847 12.4249C14.8581 13.0099 14.7602 13.3278 14.6783 13.5391C14.5693 13.8193 14.4394 14.0191 14.2295 14.2288C14.0196 14.4385 13.8195 14.5685 13.5393 14.6776C13.3281 14.76 13.0101 14.8574 12.4251 14.884C11.7926 14.9131 11.6026 14.9189 10.0002 14.9189C8.39789 14.9189 8.20842 14.9131 7.57614 14.884M7.52646 4.03634C6.8877 4.06542 6.45122 4.1667 6.07003 4.31502C5.67551 4.46819 5.34108 4.67368 5.00713 5.00709C4.67318 5.3405 4.46821 5.67496 4.31504 6.06995C4.16671 6.45136 4.06543 6.88758 4.03634 7.52632C4.00677 8.16606 4 8.37059 4 10C4 11.6294 4.00677 11.8339 4.03634 12.4737C4.06543 13.1125 4.16671 13.5486 4.31504 13.93C4.46821 14.3246 4.67323 14.6596 5.00713 14.9929C5.34103 15.3262 5.67503 15.5314 6.07003 15.685C6.45194 15.8333 6.8877 15.9346 7.52646 15.9637C8.16657 15.9928 8.37077 16 10.0002 16C11.6297 16 11.8342 15.9932 12.474 15.9637C13.1128 15.9346 13.549 15.8333 13.9304 15.685C14.325 15.5314 14.6594 15.3263 14.9934 14.9929C15.3273 14.6595 15.5318 14.3246 15.6854 13.93C15.8338 13.5486 15.9355 13.1124 15.9641 12.4737C15.9932 11.8335 16 11.6294 16 10C16 8.37059 15.9932 8.16606 15.9641 7.52632C15.9351 6.88754 15.8338 6.45112 15.6854 6.06995C15.5318 5.67544 15.3268 5.34102 14.9934 5.00709C14.6599 4.67315 14.325 4.46819 13.9309 4.31502C13.549 4.1667 13.1128 4.06494 12.4745 4.03634C11.8346 4.0071 11.6302 4 10.001 4C8.37173 4 8.16681 4.00677 7.5267 4.03634" stroke="white" stroke-width="0.2"/>
</g>
</g>
<defs>
<clipPath id="clip0_205_555">
<rect width="20" height="20" fill="white"/>
</clipPath>
</defs>
</svg>
