<svg width="20" height="20" viewBox="0 0 20 20" fill="none" xmlns="http://www.w3.org/2000/svg">
<g id="linkedin-icon-2 1">
<g clip-path="url(#clip0_205_559)">
<g id="Group">
<path id="Vector" d="M0 1.46696C0 0.679347 0.662031 0.0400391 1.47812 0.0400391H18.5219C19.3383 0.0400391 20 0.679347 20 1.46696V18.5333C20 19.3212 19.3383 19.96 18.5219 19.96H1.47812C0.662109 19.96 0 19.3213 0 18.5336V1.46673V1.46696Z" fill="#0DB760"/>
<path id="Vector_2" d="M7.27004 14.9998V8.25254H5.12636V14.9998H7.27026H7.27004ZM6.19864 7.33148C6.94603 7.33148 7.41133 6.81338 7.41133 6.16589C7.39734 5.50365 6.94603 5 6.21286 5C5.47918 5 5 5.50365 5 6.16583C5 6.81332 5.46513 7.33142 6.1846 7.33142H6.19848L6.19864 7.33148ZM8.45659 14.9998H10.6001V11.2322C10.6001 11.0308 10.6141 10.8289 10.6707 10.6851C10.8256 10.282 11.1783 9.86477 11.7707 9.86477C12.5461 9.86477 12.8565 10.4834 12.8565 11.3906V14.9998H15V11.1311C15 9.05874 13.9426 8.09436 12.5323 8.09436C11.376 8.09436 10.8681 8.77048 10.586 9.23098H10.6003V8.25278H8.4567C8.48468 8.88575 8.45654 15 8.45654 15L8.45659 14.9998Z" fill="white"/>
</g>
</g>
</g>
<defs>
<clipPath id="clip0_205_559">
<rect width="20" height="20" rx="5" fill="white"/>
</clipPath>
</defs>
</svg>
