<svg width="20" height="20" viewBox="0 0 20 20" fill="none" xmlns="http://www.w3.org/2000/svg">
<g id="facebook-4 1">
<g clip-path="url(#clip0_205_563)">
<path id="Vector" d="M1.13136 7.11624V15.8717C1.13136 17.5288 2.47144 18.8689 4.12827 18.8689H15.8719C17.5288 18.8689 18.8689 17.5288 18.8689 15.8717V7.14687C16.3342 7.80953 13.3076 8.19449 10.0582 8.19449C6.75789 8.19449 3.68908 7.79761 1.13136 7.11624ZM0.00276996 3.44958C0.000977031 3.49626 7.3892e-05 3.54296 6.10352e-05 3.58966L6.10352e-05 16.4104C6.10352e-05 18.389 1.61103 20 3.59003 20H16.4102C18.3892 20 20.0001 18.389 20.0001 16.4104V3.58966C20.0001 3.56553 19.9998 3.54125 19.9993 3.51721V6.82279C19.8486 6.86997 19.6957 6.91622 19.5408 6.96134V16.1159C19.5408 18.0041 18.0039 19.541 16.1158 19.541H3.88427C1.99619 19.541 0.459199 18.0041 0.459199 16.1159V6.92721C0.304249 6.8812 0.151367 6.83412 0.00075058 6.78605V3.56952C0.000799833 3.52942 0.00144012 3.48938 0.00276996 3.44958Z" fill="#0DB760"/>
<path id="Vector_2" d="M1.13133 4.12384C1.13133 2.47125 2.47141 1.12703 4.12823 1.12703H15.8719C17.5288 1.12703 18.8688 2.47125 18.8688 4.12384V15.8718C18.8688 17.5288 17.5288 18.8689 15.8719 18.8689H4.12819C2.47136 18.8689 1.13128 17.5288 1.13128 15.8718L1.13133 4.12384ZM0.459167 3.88408V16.1159C0.459167 18.004 1.99616 19.541 3.88423 19.541H16.1158C18.0039 19.541 19.5408 18.004 19.5408 16.1159V3.88408C19.5408 1.9961 18.0039 0.459106 16.1158 0.459106H3.88423C1.99616 0.459106 0.459167 1.9961 0.459167 3.88408Z" fill="#0DB760"/>
<path id="Vector_3" d="M16.5742 0H3.38776C3.2991 0 3.21153 0.00448204 3.1245 0.0111312C1.40379 0.235529 0.0610013 1.68293 0.00268555 3.4496C0.0765161 1.53547 1.65784 0 3.58989 0H16.4102C18.3649 0 19.9606 1.57177 19.9992 3.51722V3.51028C19.9703 1.74726 18.6638 0.288279 16.9669 0.023149C16.8379 0.00837304 16.7071 0 16.5742 0" fill="#0DB760"/>
<path id="Vector_4" d="M15.872 1.12701H4.12833C2.47151 1.12701 1.13142 2.47123 1.13142 4.12382V7.1162C3.68914 7.79757 6.75791 8.19445 10.0582 8.19445C13.3076 8.19445 16.3342 7.80949 18.8688 7.14684V4.12387C18.8689 2.47128 17.5288 1.12701 15.872 1.12701ZM16.4104 0H3.59009C1.65804 0 0.0767162 1.53547 0.00288566 3.4496C0.00160507 3.48939 0.000915527 3.52943 0.000915527 3.56953V6.78601C0.153235 6.83466 0.30606 6.88171 0.459364 6.92717V3.88411C0.459364 1.99613 1.99636 0.459138 3.88443 0.459138H16.116C18.0041 0.459138 19.541 1.99613 19.541 3.88411V6.96135C19.6943 6.91672 19.8472 6.87053 19.9995 6.8228V3.51722C19.9608 1.57177 18.3651 0 16.4104 0Z" fill="#0DB760"/>
<path id="Vector_5" d="M16.1158 0.459106H3.88423C1.99616 0.459106 0.459167 1.9961 0.459167 3.88408V6.92713C0.682305 6.9933 0.906364 7.05632 1.13128 7.11617V4.12384C1.13128 2.47125 2.47136 1.12703 4.12819 1.12703H15.8718C17.5287 1.12703 18.8688 2.47125 18.8688 4.12384V7.1469C19.0937 7.08817 19.3177 7.02632 19.5409 6.96137V3.88408C19.5408 1.9961 18.0039 0.459106 16.1158 0.459106Z" fill="#0DB760"/>
<path id="Vector_6" d="M11.9926 5H10.2944C9.28669 5 8.16581 5.43878 8.16581 6.95102C8.17073 7.47795 8.16581 7.98259 8.16581 8.55052H7V10.4711H8.20188V16H10.4104V10.4346H11.8681L12 8.54514H10.3724C10.3724 8.54514 10.376 7.70463 10.3724 7.46054C10.3724 6.86293 10.973 6.89716 11.0091 6.89716C11.295 6.89716 11.8507 6.89802 11.9934 6.89716V5H11.9926Z" fill="white"/>
</g>
</g>
<defs>
<clipPath id="clip0_205_563">
<rect width="20" height="20" rx="5" fill="white"/>
</clipPath>
</defs>
</svg>
