<svg width="24" height="24" viewBox="0 0 24 24" fill="none" xmlns="http://www.w3.org/2000/svg">
<g filter="url(#filter0_bi_205_284)">
<circle cx="12" cy="12" r="12" fill="#0DB760"/>
</g>
<g clip-path="url(#clip0_205_284)">
<path d="M14.5 7.00012H9.5C8.11929 7.00012 7 8.11941 7 9.50012V14.5001C7 15.8808 8.11929 17.0001 9.5 17.0001H14.5C15.8807 17.0001 17 15.8808 17 14.5001V9.50012C17 8.11941 15.8807 7.00012 14.5 7.00012Z" stroke="white" stroke-linecap="round" stroke-linejoin="round"/>
<path d="M13.9979 11.685C14.0596 12.1012 13.9885 12.5261 13.7948 12.8995C13.601 13.2729 13.2945 13.5757 12.9187 13.7649C12.543 13.954 12.1171 14.0198 11.7018 13.953C11.2865 13.8862 10.9028 13.6901 10.6053 13.3926C10.3079 13.0951 10.1118 12.7115 10.0449 12.2961C9.9781 11.8808 10.0439 11.455 10.2331 11.0792C10.4222 10.7035 10.725 10.3969 11.0984 10.2031C11.4718 10.0094 11.8968 9.93832 12.3129 10C12.7374 10.063 13.1303 10.2608 13.4337 10.5642C13.7372 10.8676 13.935 11.2606 13.9979 11.685Z" stroke="white" stroke-linecap="round" stroke-linejoin="round"/>
<path d="M14.75 9.25012H14.755" stroke="white" stroke-linecap="round" stroke-linejoin="round"/>
</g>
<defs>
<filter id="filter0_bi_205_284" x="-42" y="-42" width="108" height="108" filterUnits="userSpaceOnUse" color-interpolation-filters="sRGB">
<feFlood flood-opacity="0" result="BackgroundImageFix"/>
<feGaussianBlur in="BackgroundImageFix" stdDeviation="21"/>
<feComposite in2="SourceAlpha" operator="in" result="effect1_backgroundBlur_205_284"/>
<feBlend mode="normal" in="SourceGraphic" in2="effect1_backgroundBlur_205_284" result="shape"/>
<feColorMatrix in="SourceAlpha" type="matrix" values="0 0 0 0 0 0 0 0 0 0 0 0 0 0 0 0 0 0 127 0" result="hardAlpha"/>
<feOffset dx="-5" dy="-5"/>
<feGaussianBlur stdDeviation="125"/>
<feComposite in2="hardAlpha" operator="arithmetic" k2="-1" k3="1"/>
<feColorMatrix type="matrix" values="0 0 0 0 1 0 0 0 0 1 0 0 0 0 1 0 0 0 0.02 0"/>
<feBlend mode="normal" in2="shape" result="effect2_innerShadow_205_284"/>
</filter>
<clipPath id="clip0_205_284">
<rect width="12" height="12" fill="white" transform="translate(6 6)"/>
</clipPath>
</defs>
</svg>
