<svg width="28" height="28" viewBox="0 0 28 28" fill="none" xmlns="http://www.w3.org/2000/svg">
<path d="M17.5 12.25C17.5 13.1783 17.1313 14.0685 16.4749 14.7249C15.8185 15.3813 14.9283 15.75 14 15.75C13.0717 15.75 12.1815 15.3813 11.5251 14.7249C10.8687 14.0685 10.5 13.1783 10.5 12.25C10.5 11.3217 10.8687 10.4315 11.5251 9.77513C12.1815 9.11875 13.0717 8.75 14 8.75C14.9283 8.75 15.8185 9.11875 16.4749 9.77513C17.1313 10.4315 17.5 11.3217 17.5 12.25V12.25Z" stroke="white" stroke-width="1.5" stroke-linecap="round" stroke-linejoin="round"/>
<path d="M22.75 12.25C22.75 20.5823 14 25.375 14 25.375C14 25.375 5.25 20.5823 5.25 12.25C5.25 9.92936 6.17187 7.70376 7.81282 6.06282C9.45376 4.42187 11.6794 3.5 14 3.5C16.3206 3.5 18.5462 4.42187 20.1872 6.06282C21.8281 7.70376 22.75 9.92936 22.75 12.25V12.25Z" stroke="white" stroke-width="1.5" stroke-linecap="round" stroke-linejoin="round"/>
</svg>
