<svg width="96" height="16" viewBox="0 0 96 16" fill="none" xmlns="http://www.w3.org/2000/svg">
<path d="M8.72727 0L11.0357 5.08754L17.0274 5.52786L12.4623 9.11246L13.857 14.4721L8.72727 11.6L3.59751 14.4721L4.99222 9.11246L0.427143 5.52786L6.41888 5.08754L8.72727 0Z" fill="#FE8B75"/>
<path d="M28.3636 0L30.672 5.08754L36.6638 5.52786L32.0987 9.11246L33.4934 14.4721L28.3636 11.6L23.2339 14.4721L24.6286 9.11246L20.0635 5.52786L26.0552 5.08754L28.3636 0Z" fill="#FE8B75"/>
<path d="M48 0L50.3084 5.08754L56.3002 5.52786L51.7351 9.11246L53.1298 14.4721L48 11.6L42.8703 14.4721L44.265 9.11246L39.6999 5.52786L45.6916 5.08754L48 0Z" fill="#FE8B75"/>
<path d="M67.6364 0L69.9448 5.08754L75.9365 5.52786L71.3714 9.11246L72.7661 14.4721L67.6364 11.6L62.5066 14.4721L63.9013 9.11246L59.3362 5.52786L65.328 5.08754L67.6364 0Z" fill="#FE8B75"/>
<path d="M87.2727 0L89.5811 5.08754L95.5728 5.52786L91.0078 9.11246L92.4025 14.4721L87.2727 11.6L82.143 14.4721L83.5377 9.11246L78.9726 5.52786L84.9643 5.08754L87.2727 0Z" fill="#FE8B75"/>
</svg>
