<svg width="24" height="24" viewBox="0 0 24 24" fill="none" xmlns="http://www.w3.org/2000/svg">
<g filter="url(#filter0_bi_205_296)">
<circle cx="12" cy="12" r="12" fill="#0DB760"/>
</g>
<path d="M17.5 7.49917C17.0212 7.83691 16.4911 8.09522 15.93 8.26417C15.6289 7.91792 15.2287 7.67251 14.7835 7.56113C14.3384 7.44975 13.8697 7.47777 13.441 7.6414C13.0123 7.80502 12.6442 8.09637 12.3865 8.47603C12.1288 8.85568 11.9938 9.30534 12 9.76417V10.2642C11.1213 10.287 10.2506 10.0921 9.4655 9.69689C8.68037 9.30171 8.00516 8.71849 7.5 7.99917C7.5 7.99917 5.5 12.4992 10 14.4992C8.97026 15.1982 7.74358 15.5486 6.5 15.4992C11 17.9992 16.5 15.4992 16.5 9.74917C16.4995 9.6099 16.4861 9.47097 16.46 9.33417C16.9703 8.83092 17.3304 8.19552 17.5 7.49917Z" fill="white"/>
<defs>
<filter id="filter0_bi_205_296" x="-42" y="-42" width="108" height="108" filterUnits="userSpaceOnUse" color-interpolation-filters="sRGB">
<feFlood flood-opacity="0" result="BackgroundImageFix"/>
<feGaussianBlur in="BackgroundImageFix" stdDeviation="21"/>
<feComposite in2="SourceAlpha" operator="in" result="effect1_backgroundBlur_205_296"/>
<feBlend mode="normal" in="SourceGraphic" in2="effect1_backgroundBlur_205_296" result="shape"/>
<feColorMatrix in="SourceAlpha" type="matrix" values="0 0 0 0 0 0 0 0 0 0 0 0 0 0 0 0 0 0 127 0" result="hardAlpha"/>
<feOffset dx="-5" dy="-5"/>
<feGaussianBlur stdDeviation="125"/>
<feComposite in2="hardAlpha" operator="arithmetic" k2="-1" k3="1"/>
<feColorMatrix type="matrix" values="0 0 0 0 1 0 0 0 0 1 0 0 0 0 1 0 0 0 0.02 0"/>
<feBlend mode="normal" in2="shape" result="effect2_innerShadow_205_296"/>
</filter>
</defs>
</svg>
